<svg width="586" height="483" viewBox="0 0 586 483" fill="none" xmlns="http://www.w3.org/2000/svg">
<path opacity="0.941" fill-rule="evenodd" clip-rule="evenodd" d="M280 0C291.643 1.488 301.309 6.654 309 15.5C319.318 15.107 329.651 15.107 340 15.5C352.499 18.302 357.666 26.135 355.5 39C361.737 40.124 367.903 41.624 374 43.5C381.2 51.759 384.867 61.426 385 72.5C384.221 79.78 382.888 86.947 381 94C389.99 96.382 398.157 100.382 405.5 106C407.045 110.547 407.379 115.213 406.5 120C405.078 125.189 403.578 130.356 402 135.5C405.488 140.321 409.654 144.488 414.5 148C420.035 153.799 421.368 160.465 418.5 168C415.419 173.831 412.085 179.498 408.5 185C408.167 197.009 408.5 209.009 409.5 221C409.713 227.139 410.713 233.139 412.5 239C421.25 253.502 430.25 267.835 439.5 282C461.847 312.692 484.68 343.025 508 373C508.502 374.021 509.168 374.188 510 373.5C523.708 361.457 537.708 349.79 552 338.5C562.882 326.456 573.548 314.289 584 302C584.808 302.308 585.475 302.808 586 303.5C536.886 396.243 460.886 453.91 358 476.5C238.745 496.523 136.912 463.69 52.5 378C33.6301 356.592 16.9634 333.592 2.5 309C1.5187 306.54 0.6854 304.04 0 301.5C0.3333 300.667 0.6667 299.833 1 299C13.0785 313.919 25.7452 328.419 39 342.5C42.1777 345.014 45.3444 347.514 48.5 350C50.4439 349.061 52.1106 347.727 53.5 346C74.5 319.667 95.5 293.333 116.5 267C123.161 258.347 129.327 249.347 135 240C127.643 231.144 120.477 222.144 113.5 213C111.964 206.751 111.63 200.417 112.5 194C119.596 171.807 127.262 149.807 135.5 128C138.936 127.214 142.436 126.547 146 126C147.147 125.682 147.981 125.016 148.5 124C148.833 115.333 149.167 106.667 149.5 98C149.86 95.892 150.527 93.892 151.5 92C161.516 82.658 170.016 72.158 177 60.5C180.46 57.561 184.293 56.727 188.5 58C191.359 57.327 194.192 56.493 197 55.5C203 48.5 209 41.5 215 34.5C217.416 33.437 219.916 32.604 222.5 32C225.955 33.05 229.455 33.217 233 32.5C237.312 28.519 241.312 24.186 245 19.5C250.572 17.185 256.239 15.185 262 13.5C264.706 11.129 267.039 8.463 269 5.5C272.228 2.553 275.895 0.719 280 0ZM286 13C295.096 13.27 300.763 17.77 303 26.5C301.329 33.964 296.995 35.964 290 32.5C284.441 29.775 280.441 25.609 278 20C278.18 18.946 278.513 17.946 279 17C281.265 15.373 283.599 14.039 286 13ZM326 20C340.924 19.092 347.424 26.092 345.5 41C339.951 57.881 328.951 69.547 312.5 76C305.422 72.921 303.089 67.588 305.5 60C309.732 51.202 314.732 42.869 320.5 35C321.09 31.203 320.59 27.536 319 24C321.265 22.373 323.599 21.039 326 20ZM252 27C265.788 27.807 277.622 33.141 287.5 43C290.228 52.274 286.728 55.774 277 53.5C267.256 49.881 258.756 44.381 251.5 37C249.588 33.567 249.755 30.233 252 27ZM237 38C242.31 38.937 247.31 40.771 252 43.5C265.524 54.014 279.857 63.347 295 71.5C300.753 74.252 304.753 78.585 307 84.5C302.831 92.011 296.331 95.844 287.5 96C268.166 94.345 253.5 85.345 243.5 69C238.354 63.066 235.354 64.066 234.5 72C234.824 81.76 232.49 90.76 227.5 99C221.081 103.683 213.914 105.183 206 103.5C199.721 101.027 193.721 98.027 188 94.5C181.102 93.887 179.269 96.721 182.5 103C196.744 117.157 207.744 133.49 215.5 152C219.641 165.6 216.808 177.433 207 187.5C200.876 191.965 194.209 192.965 187 190.5C175.223 185.056 166.389 176.556 160.5 165C158.592 152.087 157.759 139.087 158 126C154.56 109.558 158.893 95.724 171 84.5C185.828 74.252 200.828 64.252 216 54.5C220.667 51.167 224.667 47.167 228 42.5C230.937 40.699 233.937 39.199 237 38ZM357 49C362.212 50.604 367.212 52.771 372 55.5C376.65 60.074 378.15 65.574 376.5 72C375.337 77.328 373.337 82.328 370.5 87C361.062 100.77 349.896 112.937 337 123.5C333.566 125.935 329.9 127.935 326 129.5C314.5 131.333 309.667 126.5 311.5 115C312.833 112.333 314.167 109.667 315.5 107C325.167 95 334.833 83 344.5 71C349.45 64.099 353.616 56.766 357 49ZM263 100C265.687 99.836 268.354 100.003 271 100.5C272.379 106.866 275.712 111.866 281 115.5C286.697 116.445 292.364 117.445 298 118.5C313.842 133.593 328.508 149.593 342 166.5C348.696 169.31 355.696 170.644 363 170.5C366.016 176.868 370.016 182.535 375 187.5C381.397 191.416 388.231 193.25 395.5 193C399.244 212.386 403.244 231.719 407.5 251C437.615 295.347 467.781 339.18 498 382.5C467.792 403.27 435.125 419.27 400 430.5C396.732 431.713 393.399 432.046 390 431.5C363.619 398.453 338.786 364.287 315.5 329C307.63 319.463 298.797 310.963 289 303.5C286.411 302.303 283.744 301.303 281 300.5C247.492 297.442 215.825 288.109 186 272.5C160.33 253.499 138.83 230.666 121.5 204C120.833 200 120.833 196 121.5 192C126.989 174.196 133.656 156.863 141.5 140C145.583 137.928 147.75 139.095 148 143.5C146.123 155.348 144.623 167.181 143.5 179C151.848 181.174 159.182 185.174 165.5 191C170.5 199.667 175.5 208.333 180.5 217C189.178 228.54 199.345 230.373 211 222.5C225.28 208.449 234.78 191.615 239.5 172C240.018 167.949 239.684 163.949 238.5 160C234.138 149.914 229.971 139.747 226 129.5C226.548 125.573 228.048 122.073 230.5 119C236.374 113.457 242.541 108.29 249 103.5C253.684 101.847 258.35 100.681 263 100ZM390 105C399.759 105.066 402.926 109.733 399.5 119C390.581 131.253 379.748 141.42 367 149.5C363.54 151.565 359.874 153.065 356 154C344.162 150.974 341.995 144.641 349.5 135C361.233 122.408 374.733 112.408 390 105ZM397 148C403.343 147.255 407.51 149.922 409.5 156C410.769 170.732 403.935 177.565 389 176.5C383.475 173.581 381.642 169.081 383.5 163C385.763 155.907 390.263 150.907 397 148ZM143 260C145.093 260.545 147.093 261.378 149 262.5C155.764 270.687 162.764 278.687 170 286.5C172.882 288.108 175.882 289.441 179 290.5C193.968 290.987 207.635 295.321 220 303.5C229.55 311.514 233.05 321.68 230.5 334C229.478 338.756 228.144 343.423 226.5 348C213.936 374.141 199.603 399.141 183.5 423C182.149 424.519 180.649 425.852 179 427C156.625 417.264 134.292 407.43 112 397.5C100.667 390.167 89.333 382.833 78 375.5C73.25 372.127 68.9168 368.294 65 364C84.039 342.241 101.872 319.575 118.5 296C123.246 286.839 128.246 277.839 133.5 269C135.906 265.092 139.072 262.092 143 260ZM275 326C286.149 325.492 295.316 329.492 302.5 338C327.122 370.41 351.622 402.91 376 435.5C367.944 438.38 359.61 440.38 351 441.5C297.82 450.196 245.487 446.862 194 431.5C211.125 403.746 228.625 376.246 246.5 349C251.3 343.198 256.467 337.698 262 332.5C266.147 329.76 270.48 327.593 275 326Z" fill="#5B2E8F"/>
</svg>
