<svg width="1529" height="551" viewBox="0 0 1529 551" fill="none" xmlns="http://www.w3.org/2000/svg">
<path opacity="0.993" fill-rule="evenodd" clip-rule="evenodd" d="M142.5 11.5C231.976 14.476 281.476 60.476 291 149.5C291.5 238.833 291.67 328.166 291.5 417.5C251.833 417.5 212.167 417.5 172.5 417.5C172.5 386.5 172.5 355.5 172.5 324.5C154.833 324.5 137.167 324.5 119.5 324.5C119.5 355.5 119.5 386.5 119.5 417.5C79.833 417.5 40.167 417.5 0.500019 417.5C0.333019 327.833 0.500019 238.166 1.00002 148.5C10.122 63.207 57.289 17.541 142.5 11.5ZM140.5 128.5C159.059 127.881 169.559 136.881 172 155.5C172.5 176.831 172.667 198.164 172.5 219.5C154.833 219.5 137.167 219.5 119.5 219.5C119.063 196.128 119.563 172.795 121 149.5C123.44 138.55 129.94 131.55 140.5 128.5Z" fill="#5B2E8F"/>
<path opacity="0.994" fill-rule="evenodd" clip-rule="evenodd" d="M1207.5 24.5C1244.17 24.5 1280.83 24.5 1317.5 24.5C1317.5 155.5 1317.5 286.5 1317.5 417.5C1280.83 417.5 1244.17 417.5 1207.5 417.5C1207.5 286.5 1207.5 155.5 1207.5 24.5Z" fill="#5B2E8F"/>
<path opacity="0.992" fill-rule="evenodd" clip-rule="evenodd" d="M1369.5 24.5C1406.17 24.5 1442.83 24.5 1479.5 24.5C1479.5 60.833 1479.5 97.167 1479.5 133.5C1495.83 133.5 1512.17 133.5 1528.5 133.5C1528.5 171.167 1528.5 208.833 1528.5 246.5C1512.17 246.5 1495.83 246.5 1479.5 246.5C1478.74 261.954 1482.24 276.287 1490 289.5C1500.1 301.299 1512.94 306.632 1528.5 305.5C1528.5 344.833 1528.5 384.167 1528.5 423.5C1479.11 424.55 1437.61 407.216 1404 371.5C1383.42 344.761 1372.08 314.427 1370 280.5C1369.83 197.597 1369.33 114.763 1368.5 32C1369.44 29.619 1369.77 27.119 1369.5 24.5Z" fill="#5B2E8F"/>
<path opacity="0.988" fill-rule="evenodd" clip-rule="evenodd" d="M465.5 123.5C502.38 124.024 532.54 138.357 556 166.5C598.39 120.796 647.22 112.296 702.5 141C733.5 159.479 751.67 186.646 757 222.5C758.46 287.479 758.96 352.479 758.5 417.5C721.5 417.5 684.5 417.5 647.5 417.5C647.67 362.499 647.5 307.499 647 252.5C646.08 245.153 642.91 238.986 637.5 234C623.58 230.542 615.42 236.042 613 250.5C612.5 306.166 612.33 361.832 612.5 417.5C575.17 417.5 537.83 417.5 500.5 417.5C500.67 361.499 500.5 305.499 500 249.5C498.72 243.083 495.55 237.916 490.5 234C477.5 230.255 469.67 235.088 467 248.5C466.67 250.833 466.33 253.167 466 255.5C465.5 309.499 465.33 363.499 465.5 417.5C428.83 417.5 392.17 417.5 355.5 417.5C354.75 357.758 354.42 297.925 354.5 238C357.1 187.772 381.43 152.772 427.5 133C439.84 127.972 452.51 124.805 465.5 123.5Z" fill="#5B2E8F"/>
<path opacity="0.989" fill-rule="evenodd" clip-rule="evenodd" d="M859.5 129.5C896.5 129.5 933.5 129.5 970.5 129.5C970.67 213.834 970.5 298.167 970 382.5C968.35 416.107 959.68 447.774 944 477.5C912.09 525.21 867.26 549.544 809.5 550.5C788.19 551.105 767.86 547.105 748.5 538.5C747.17 505.203 747.17 471.87 748.5 438.5C760.36 443.842 772.69 447.675 785.5 450C818.73 453.758 840.89 439.925 852 408.5C855.61 398.482 857.61 388.149 858 377.5C859.14 295.265 859.64 212.598 859.5 129.5Z" fill="#5B2E8F"/>
<path opacity="0.984" fill-rule="evenodd" clip-rule="evenodd" d="M1033.5 133.5C1070.17 133.5 1106.83 133.5 1143.5 133.5C1143.5 229.5 1143.5 325.5 1143.5 421.5C1106.5 421.5 1069.5 421.5 1032.5 421.5C1032.17 325.43 1032.5 229.43 1033.5 133.5Z" fill="#5B2E8F"/>
<path d="M966 54.5C966 24.4005 941.6 0 911.5 0C881.4 0 857 24.4005 857 54.5C857 84.5995 881.4 109 911.5 109C941.6 109 966 84.5995 966 54.5Z" fill="#5B2E8F"/>
<path d="M1139 54.5C1139 24.4005 1114.6 0 1084.5 0C1054.4 0 1030 24.4005 1030 54.5C1030 84.5995 1054.4 109 1084.5 109C1114.6 109 1139 84.5995 1139 54.5Z" fill="#5B2E8F"/>
</svg>
