<svg width="2214" height="551" viewBox="0 0 2214 551" fill="none" xmlns="http://www.w3.org/2000/svg">
<path opacity="0.941" fill-rule="evenodd" clip-rule="evenodd" d="M280.5 11.5C292.143 12.988 301.809 18.154 309.5 27C319.818 26.607 330.151 26.607 340.5 27C352.999 29.802 358.166 37.635 356 50.5C362.237 51.624 368.403 53.124 374.5 55C381.7 63.259 385.367 72.926 385.5 84C384.721 91.28 383.388 98.447 381.5 105.5C390.49 107.882 398.657 111.882 406 117.5C407.545 122.047 407.879 126.713 407 131.5C405.578 136.689 404.078 141.856 402.5 147C405.988 151.821 410.154 155.988 415 159.5C420.535 165.299 421.868 171.965 419 179.5C415.919 185.331 412.585 190.998 409 196.5C408.667 208.509 409 220.509 410 232.5C410.213 238.639 411.213 244.639 413 250.5C421.75 265.002 430.75 279.335 440 293.5C462.347 324.192 485.18 354.525 508.5 384.5C509.002 385.521 509.668 385.688 510.5 385C524.208 372.957 538.208 361.29 552.5 350C563.382 337.956 574.048 325.789 584.5 313.5C585.308 313.808 585.975 314.308 586.5 315C537.386 407.743 461.386 465.41 358.5 488C239.245 508.023 137.412 475.19 53 389.5C34.1301 368.092 17.4634 345.092 3 320.5C2.0187 318.04 1.1854 315.54 0.5 313C0.8333 312.167 1.1667 311.333 1.5 310.5C13.5785 325.419 26.2452 339.919 39.5 354C42.6777 356.514 45.8444 359.014 49 361.5C50.9439 360.561 52.6106 359.227 54 357.5C75 331.167 96 304.833 117 278.5C123.661 269.847 129.827 260.847 135.5 251.5C128.143 242.644 120.977 233.644 114 224.5C112.464 218.251 112.13 211.917 113 205.5C120.096 183.307 127.762 161.307 136 139.5C139.436 138.714 142.936 138.047 146.5 137.5C147.647 137.182 148.481 136.516 149 135.5C149.333 126.833 149.667 118.167 150 109.5C150.36 107.392 151.027 105.392 152 103.5C162.016 94.158 170.516 83.658 177.5 72C180.96 69.061 184.793 68.227 189 69.5C191.859 68.827 194.692 67.993 197.5 67C203.5 60 209.5 53 215.5 46C217.916 44.937 220.416 44.104 223 43.5C226.455 44.55 229.955 44.717 233.5 44C237.812 40.019 241.812 35.686 245.5 31C251.072 28.685 256.739 26.685 262.5 25C265.206 22.629 267.539 19.963 269.5 17C272.728 14.053 276.395 12.219 280.5 11.5ZM286.5 24.5C295.596 24.77 301.263 29.27 303.5 38C301.829 45.464 297.495 47.464 290.5 44C284.941 41.275 280.941 37.109 278.5 31.5C278.68 30.446 279.013 29.446 279.5 28.5C281.765 26.873 284.099 25.539 286.5 24.5ZM326.5 31.5C341.424 30.592 347.924 37.592 346 52.5C340.451 69.381 329.451 81.047 313 87.5C305.922 84.421 303.589 79.088 306 71.5C310.232 62.702 315.232 54.369 321 46.5C321.59 42.703 321.09 39.036 319.5 35.5C321.765 33.873 324.099 32.539 326.5 31.5ZM252.5 38.5C266.288 39.307 278.122 44.641 288 54.5C290.728 63.774 287.228 67.274 277.5 65C267.756 61.381 259.256 55.881 252 48.5C250.088 45.067 250.255 41.733 252.5 38.5ZM237.5 49.5C242.81 50.437 247.81 52.271 252.5 55C266.024 65.514 280.357 74.847 295.5 83C301.253 85.752 305.253 90.085 307.5 96C303.331 103.511 296.831 107.344 288 107.5C268.666 105.845 254 96.845 244 80.5C238.854 74.566 235.854 75.566 235 83.5C235.324 93.26 232.99 102.26 228 110.5C221.581 115.183 214.414 116.683 206.5 115C200.221 112.527 194.221 109.527 188.5 106C181.602 105.387 179.769 108.221 183 114.5C197.244 128.657 208.244 144.99 216 163.5C220.141 177.1 217.308 188.933 207.5 199C201.376 203.465 194.709 204.465 187.5 202C175.723 196.556 166.889 188.056 161 176.5C159.092 163.587 158.259 150.587 158.5 137.5C155.06 121.058 159.393 107.224 171.5 96C186.328 85.752 201.328 75.752 216.5 66C221.167 62.667 225.167 58.667 228.5 54C231.437 52.199 234.437 50.699 237.5 49.5ZM357.5 60.5C362.712 62.104 367.712 64.271 372.5 67C377.15 71.574 378.65 77.074 377 83.5C375.837 88.828 373.837 93.828 371 98.5C361.562 112.27 350.396 124.437 337.5 135C334.066 137.435 330.4 139.435 326.5 141C315 142.833 310.167 138 312 126.5C313.333 123.833 314.667 121.167 316 118.5C325.667 106.5 335.333 94.5 345 82.5C349.95 75.599 354.116 68.266 357.5 60.5ZM263.5 111.5C266.187 111.336 268.854 111.503 271.5 112C272.879 118.366 276.212 123.366 281.5 127C287.197 127.945 292.864 128.945 298.5 130C314.342 145.093 329.008 161.093 342.5 178C349.196 180.81 356.196 182.144 363.5 182C366.516 188.368 370.516 194.035 375.5 199C381.897 202.916 388.731 204.75 396 204.5C399.744 223.886 403.744 243.219 408 262.5C438.115 306.847 468.281 350.68 498.5 394C468.292 414.77 435.625 430.77 400.5 442C397.232 443.213 393.899 443.546 390.5 443C364.119 409.953 339.286 375.787 316 340.5C308.13 330.963 299.297 322.463 289.5 315C286.911 313.803 284.244 312.803 281.5 312C247.992 308.942 216.325 299.609 186.5 284C160.83 264.999 139.33 242.166 122 215.5C121.333 211.5 121.333 207.5 122 203.5C127.489 185.696 134.156 168.363 142 151.5C146.083 149.428 148.25 150.595 148.5 155C146.623 166.848 145.123 178.681 144 190.5C152.348 192.674 159.682 196.674 166 202.5C171 211.167 176 219.833 181 228.5C189.678 240.04 199.845 241.873 211.5 234C225.78 219.949 235.28 203.115 240 183.5C240.518 179.449 240.184 175.449 239 171.5C234.638 161.414 230.471 151.247 226.5 141C227.048 137.073 228.548 133.573 231 130.5C236.874 124.957 243.041 119.79 249.5 115C254.184 113.347 258.85 112.181 263.5 111.5ZM390.5 116.5C400.259 116.566 403.426 121.233 400 130.5C391.081 142.753 380.248 152.92 367.5 161C364.04 163.065 360.374 164.565 356.5 165.5C344.662 162.474 342.495 156.141 350 146.5C361.733 133.908 375.233 123.908 390.5 116.5ZM397.5 159.5C403.843 158.755 408.01 161.422 410 167.5C411.269 182.232 404.435 189.065 389.5 188C383.975 185.081 382.142 180.581 384 174.5C386.263 167.407 390.763 162.407 397.5 159.5ZM143.5 271.5C145.593 272.045 147.593 272.878 149.5 274C156.264 282.187 163.264 290.187 170.5 298C173.382 299.608 176.382 300.941 179.5 302C194.468 302.487 208.135 306.821 220.5 315C230.05 323.014 233.55 333.18 231 345.5C229.978 350.256 228.644 354.923 227 359.5C214.436 385.641 200.103 410.641 184 434.5C182.649 436.019 181.149 437.352 179.5 438.5C157.125 428.764 134.792 418.93 112.5 409C101.167 401.667 89.833 394.333 78.5 387C73.75 383.627 69.4168 379.794 65.5 375.5C84.539 353.741 102.372 331.075 119 307.5C123.746 298.339 128.746 289.339 134 280.5C136.406 276.592 139.572 273.592 143.5 271.5ZM275.5 337.5C286.649 336.992 295.816 340.992 303 349.5C327.622 381.91 352.122 414.41 376.5 447C368.444 449.88 360.11 451.88 351.5 453C298.32 461.696 245.987 458.362 194.5 443C211.625 415.246 229.125 387.746 247 360.5C251.8 354.698 256.967 349.198 262.5 344C266.647 341.26 270.98 339.093 275.5 337.5Z" fill="#5B2E8F"/>
<path opacity="0.993" fill-rule="evenodd" clip-rule="evenodd" d="M827.5 11.5C916.976 14.476 966.476 60.476 976 149.5C976.5 238.833 976.67 328.166 976.5 417.5C936.833 417.5 897.167 417.5 857.5 417.5C857.5 386.5 857.5 355.5 857.5 324.5C839.833 324.5 822.167 324.5 804.5 324.5C804.5 355.5 804.5 386.5 804.5 417.5C764.833 417.5 725.167 417.5 685.5 417.5C685.333 327.833 685.5 238.166 686 148.5C695.122 63.207 742.289 17.541 827.5 11.5ZM825.5 128.5C844.059 127.881 854.559 136.881 857 155.5C857.5 176.831 857.667 198.164 857.5 219.5C839.833 219.5 822.167 219.5 804.5 219.5C804.063 196.128 804.563 172.795 806 149.5C808.44 138.55 814.94 131.55 825.5 128.5Z" fill="#5B2E8F"/>
<path opacity="0.994" fill-rule="evenodd" clip-rule="evenodd" d="M1892.5 24.5C1929.17 24.5 1965.83 24.5 2002.5 24.5C2002.5 155.5 2002.5 286.5 2002.5 417.5C1965.83 417.5 1929.17 417.5 1892.5 417.5C1892.5 286.5 1892.5 155.5 1892.5 24.5Z" fill="#5B2E8F"/>
<path opacity="0.992" fill-rule="evenodd" clip-rule="evenodd" d="M2054.5 24.5C2091.17 24.5 2127.83 24.5 2164.5 24.5C2164.5 60.833 2164.5 97.167 2164.5 133.5C2180.83 133.5 2197.17 133.5 2213.5 133.5C2213.5 171.167 2213.5 208.833 2213.5 246.5C2197.17 246.5 2180.83 246.5 2164.5 246.5C2163.74 261.954 2167.24 276.287 2175 289.5C2185.1 301.299 2197.94 306.632 2213.5 305.5C2213.5 344.833 2213.5 384.167 2213.5 423.5C2164.11 424.55 2122.61 407.216 2089 371.5C2068.42 344.761 2057.08 314.427 2055 280.5C2054.83 197.597 2054.33 114.763 2053.5 32C2054.44 29.619 2054.77 27.119 2054.5 24.5Z" fill="#5B2E8F"/>
<path opacity="0.988" fill-rule="evenodd" clip-rule="evenodd" d="M1150.5 123.5C1187.38 124.024 1217.54 138.357 1241 166.5C1283.39 120.796 1332.22 112.296 1387.5 141C1418.5 159.479 1436.67 186.646 1442 222.5C1443.46 287.479 1443.96 352.479 1443.5 417.5C1406.5 417.5 1369.5 417.5 1332.5 417.5C1332.67 362.499 1332.5 307.499 1332 252.5C1331.08 245.153 1327.91 238.986 1322.5 234C1308.58 230.542 1300.42 236.042 1298 250.5C1297.5 306.166 1297.33 361.832 1297.5 417.5C1260.17 417.5 1222.83 417.5 1185.5 417.5C1185.67 361.499 1185.5 305.499 1185 249.5C1183.72 243.083 1180.55 237.916 1175.5 234C1162.5 230.255 1154.67 235.088 1152 248.5C1151.67 250.833 1151.33 253.167 1151 255.5C1150.5 309.499 1150.33 363.499 1150.5 417.5C1113.83 417.5 1077.17 417.5 1040.5 417.5C1039.75 357.758 1039.42 297.925 1039.5 238C1042.1 187.772 1066.43 152.772 1112.5 133C1124.84 127.972 1137.51 124.805 1150.5 123.5Z" fill="#5B2E8F"/>
<path opacity="0.989" fill-rule="evenodd" clip-rule="evenodd" d="M1544.5 129.5C1581.5 129.5 1618.5 129.5 1655.5 129.5C1655.67 213.834 1655.5 298.167 1655 382.5C1653.35 416.107 1644.68 447.774 1629 477.5C1597.09 525.21 1552.26 549.544 1494.5 550.5C1473.19 551.105 1452.86 547.105 1433.5 538.5C1432.17 505.203 1432.17 471.87 1433.5 438.5C1445.36 443.842 1457.69 447.675 1470.5 450C1503.73 453.758 1525.89 439.925 1537 408.5C1540.61 398.482 1542.61 388.149 1543 377.5C1544.14 295.265 1544.64 212.598 1544.5 129.5Z" fill="#5B2E8F"/>
<path opacity="0.984" fill-rule="evenodd" clip-rule="evenodd" d="M1718.5 133.5C1755.17 133.5 1791.83 133.5 1828.5 133.5C1828.5 229.5 1828.5 325.5 1828.5 421.5C1791.5 421.5 1754.5 421.5 1717.5 421.5C1717.17 325.43 1717.5 229.43 1718.5 133.5Z" fill="#5B2E8F"/>
<rect x="1542" width="109" height="109" rx="54.5" fill="#5B2E8F"/>
<rect x="1715" width="109" height="109" rx="54.5" fill="#5B2E8F"/>
</svg>
